<?xml version="1.0" encoding="UTF-8"?>
<svg width="15px" height="18px" viewBox="0 0 15 18" version="1.1" xmlns="http://www.w3.org/2000/svg" xmlns:xlink="http://www.w3.org/1999/xlink">
    <!-- Generator: Sketch 48.2 (47327) - http://www.bohemiancoding.com/sketch -->
    <title>Icon</title>
    <desc>Created with Sketch.</desc>
    <defs></defs>
    <g id="Page-1" stroke="none" stroke-width="1" fill="none" fill-rule="evenodd">
        <path d="M13.3333333,0 L1.66666667,0 C0.741666667,0 0,0.741758242 0,1.64835165 L0,13.1868132 C0,14.0934066 0.741666667,14.8351648 1.66666667,14.8351648 L5,14.8351648 L7.5,17.3076923 L10,14.8351648 L13.3333333,14.8351648 C14.25,14.8351648 15,14.0934066 15,13.1868132 L15,1.64835165 C15,0.741758242 14.25,0 13.3333333,0 L13.3333333,0 Z M8.33333333,13.1868132 L6.66666667,13.1868132 L6.66666667,11.5384615 L8.33333333,11.5384615 L8.33333333,13.1868132 L8.33333333,13.1868132 Z M10.0583333,6.79945055 L9.30833333,7.55769231 C8.70833333,8.15934066 8.33333333,8.65384615 8.33333333,9.89010989 L6.66666667,9.89010989 L6.66666667,9.47802198 C6.66666667,8.57142857 7.04166667,7.74725275 7.64166667,7.1456044 L8.675,6.10714286 C8.98333333,5.81043956 9.16666667,5.39835165 9.16666667,4.94505495 C9.16666667,4.03846154 8.41666667,3.2967033 7.5,3.2967033 C6.58333333,3.2967033 5.83333333,4.03846154 5.83333333,4.94505495 L4.16666667,4.94505495 C4.16666667,3.12362637 5.65833333,1.64835165 7.5,1.64835165 C9.34166667,1.64835165 10.8333333,3.12362637 10.8333333,4.94505495 C10.8333333,5.67032967 10.5333333,6.32967033 10.0583333,6.79945055 L10.0583333,6.79945055 Z" id="Icon" fill="#FFFFFF"></path>
    </g>
</svg>