<svg width="16px" height="14px" viewBox="0 0 16 14" version="1.1" xmlns="http://www.w3.org/2000/svg" xmlns:xlink="http://www.w3.org/1999/xlink">
    <g stroke="none" stroke-width="1" fill="none" fill-rule="evenodd">
        <path d="M15.5587002,0.246495608 C14.9238779,0.631831896 14.2224121,0.912076469 13.4726724,1.0620244 C12.8754439,0.408405201 12.0218941,0 11.0769231,0 C9.2655862,0 7.7955838,1.50716899 7.7955838,3.36592529 C7.7955838,3.62993619 7.82377914,3.88583024 7.88016981,4.13232585 C5.15205725,3.99177636 2.73366619,2.6533522 1.11371586,0.61431661 C0.830908071,1.11328866 0.66942568,1.69214749 0.66942568,2.30860011 C0.66942568,3.47571623 1.24871172,4.50612768 2.12960244,5.10976424 C1.5926094,5.09353056 1.08552052,4.94059221 0.642084746,4.69025178 L0.642084746,4.73126318 C0.642084746,6.36274798 1.77374309,7.72381385 3.27664006,8.03182656 C3.00152191,8.11085894 2.71102448,8.15016154 2.41155582,8.15016154 C2.20009078,8.15016154 1.99375217,8.13008304 1.79339439,8.09078044 C2.21162524,9.42749579 3.42317037,10.4010894 4.85985101,10.4271487 C3.73673671,11.3302539 2.32056177,11.8685286 0.783061437,11.8685286 C0.518196139,11.8685286 0.256321256,11.8531493 0,11.8223907 C1.45248712,12.7759058 3.17881078,13.3334045 5.03158625,13.3334045 C11.070515,13.3334045 14.3715056,8.20527061 14.3715056,3.75681521 C14.3715056,3.61028489 14.3689424,3.46418177 14.3629616,3.32064187 C15.0046191,2.84559314 15.5616907,2.25349104 16,1.57851173 C15.4121699,1.84594025 14.7790564,2.02707393 14.1151844,2.10824233 C14.7931541,1.69214749 15.3134862,1.03254746 15.5587002,0.246495608" id="Fill-6" fill="#FFFFFF"></path>
    </g>
</svg>