<svg width="16px" height="15px" viewBox="0 0 16 15" version="1.1" xmlns="http://www.w3.org/2000/svg" xmlns:xlink="http://www.w3.org/1999/xlink">
    <g stroke="none" stroke-width="1" fill="none" fill-rule="evenodd">
        <g fill="#FFFFFF">
            <polygon points="0.693052632 14.1740211 3.72042105 14.1740211 3.72042105 4.5816 0.693052632 4.5816"></polygon>
            <path d="M11.9919579,4.48922105 C10.2576421,4.48922105 9.17090526,5.42858947 8.97006316,6.08669474 L8.97006316,4.58143158 L5.5688,4.58143158 C5.61301053,5.38058947 5.5688,14.1738526 5.5688,14.1738526 L8.97006316,14.1738526 L8.97006316,8.98311579 C8.97006316,8.69469474 8.95616842,8.40627368 9.04374737,8.19911579 C9.27785263,7.62227368 9.78016842,7.02353684 10.6833263,7.02353684 C11.8639579,7.02353684 12.4012211,7.91069474 12.4012211,9.21006316 L12.4012211,14.1738526 L15.8340632,14.1738526 L15.8340632,8.83995789 C15.8340632,5.86901053 14.1435368,4.48922105 11.9919579,4.48922105" id="Fill-10"></path>
            <path d="M2.15065263,0.0533052632 C1.03275789,0.0533052632 0.301389474,0.7712 0.301389474,1.71898947 C0.301389474,2.64825263 1.01170526,3.38172632 2.10770526,3.38172632 L2.1296,3.38172632 C3.26770526,3.38172632 3.97633684,2.64572632 3.97633684,1.71604211 C3.95444211,0.769515789 3.26770526,0.0533052632 2.15065263,0.0533052632" id="Fill-11"></path>
        </g>
    </g>
</svg>