<svg width="36px" height="35px" viewBox="0 0 36 35" version="1.1" xmlns="http://www.w3.org/2000/svg"
     xmlns:xlink="http://www.w3.org/1999/xlink">
    <defs>
        <polygon id="path-1"
                 points="35.5407273 -3.55271368e-15 35.5407273 34.6632 0.000545454545 34.6632 0.000545454545 -3.55271368e-15 35.5407273 -3.55271368e-15"></polygon>
    </defs>
    <g stroke="none" stroke-width="1" fill="none" fill-rule="evenodd">
        <g>
            <mask id="mask-2" fill="white">
                <use xlink:href="#path-1"></use>
            </mask>
            <g id="Clip-2"></g>
            <path d="M17.7692727,-3.55271368e-15 C7.95654545,-3.55271368e-15 0.000545454545,7.956 0.000545454545,17.7709091 C0.000545454545,25.6221818 5.09181818,32.2821818 12.1532727,34.6330909 C13.0423636,34.7956364 13.3663636,34.2469091 13.3663636,33.7756364 C13.3663636,33.3545455 13.3510909,32.2363636 13.3423636,30.7538182 C8.39945455,31.8272727 7.35654545,28.3712727 7.35654545,28.3712727 C6.54818182,26.3192727 5.38309091,25.7716364 5.38309091,25.7716364 C3.76963636,24.6698182 5.50527273,24.6916364 5.50527273,24.6916364 C7.28890909,24.8170909 8.22709091,26.5232727 8.22709091,26.5232727 C9.81218182,29.2385455 12.3867273,28.4541818 13.3990909,28.0003636 C13.5605455,26.8516364 14.0187273,26.0683636 14.5270909,25.6243636 C10.5812727,25.176 6.43254545,23.6509091 6.43254545,16.8414545 C6.43254545,14.9018182 7.12527273,13.3156364 8.262,12.0730909 C8.07872727,11.6236364 7.46890909,9.81709091 8.43545455,7.37018182 C8.43545455,7.37018182 9.92781818,6.89236364 13.3227273,9.192 C14.7398182,8.79709091 16.2605455,8.60072727 17.7714545,8.59418182 C19.2801818,8.60072727 20.8009091,8.79709091 22.2201818,9.192 C25.6129091,6.89236364 27.102,7.37018182 27.102,7.37018182 C28.0718182,9.81709091 27.462,11.6236364 27.2787273,12.0730909 C28.4176364,13.3156364 29.106,14.9018182 29.106,16.8414545 C29.106,23.6683636 24.9507273,25.1705455 20.9918182,25.6101818 C21.63,26.1589091 22.1983636,27.2432727 22.1983636,28.9014545 C22.1983636,31.2763636 22.1765455,33.1930909 22.1765455,33.7756364 C22.1765455,34.2512727 22.4961818,34.8043636 23.3983636,34.6309091 C30.4543636,32.2756364 35.5412727,25.62 35.5412727,17.7709091 C35.5412727,7.956 27.5841818,-3.55271368e-15 17.7692727,-3.55271368e-15"
                  id="Fill-1" fill="#0D1110" ></path>
        </g>
    </g>
</svg>